<svg width="80" height="77" viewBox="0 0 80 77" fill="none" xmlns="http://www.w3.org/2000/svg">
<path fill-rule="evenodd" clip-rule="evenodd" d="M26.8886 0.0470622H36.0267V14.9187L47.5004 0H57.3443L36.0267 27.1965V38.0364L66.5121 0.0235235H76.1678L50.8641 33.1613L80.0002 76.1858L70.1467 76.1652L44.8913 39.2641L40.3141 44.8535L60.8944 76.1858L50.1702 76.1652L36.0267 54.6081V76.1542H26.8886V40.8021L26.0913 39.4759L19.3443 49.348V76.1542H9.92395V0H19.109V36.8835L26.8886 26.9263V0.0470622Z" fill="white"/>
<path fill-rule="evenodd" clip-rule="evenodd" d="M0.203857 0.768677H7.90023V2.16895H2.57506V3.96867H6.80446V5.36894H2.57506V8.0705H0.203857V0.768677Z" fill="white"/>
<path fill-rule="evenodd" clip-rule="evenodd" d="M0.090332 25.7699H2.39094V29.0945L5.71385 25.7699H7.96741L4.59879 28.9873L8.01447 33.0247H5.61974L3.22407 30.0135L2.39094 30.76V33.0247H0.090332V25.7699Z" fill="white"/>
<path fill-rule="evenodd" clip-rule="evenodd" d="M2.13591 35.8801H5.95294C7.27402 35.8801 8.08884 36.479 8.08884 37.8135V41.5281C8.08884 42.4457 7.49289 43.3467 5.95294 43.3467H2.13591C1.16994 43.3467 0 42.9179 0 41.4761V37.8321C0 36.6673 0.585597 35.8801 2.13591 35.8801ZM2.15944 37.8914V41.3536C2.15944 41.7563 2.3993 41.9933 2.89168 41.9933H5.28151C5.75224 41.9933 5.95294 41.723 5.95294 41.2943V37.9174C5.95294 37.4776 5.66471 37.2334 5.27661 37.2334H2.83482C2.42461 37.2334 2.15944 37.5052 2.15944 37.8914Z" fill="white"/>
<path fill-rule="evenodd" clip-rule="evenodd" d="M2.14078 57.0673H5.95782C7.27889 57.0673 8.09372 57.6661 8.09372 59.0006V62.7153C8.09372 63.6329 7.49777 64.5338 5.95782 64.5338H2.14078C1.17481 64.5338 0.00488281 64.105 0.00488281 62.6633V59.0193C0.00488281 57.8544 0.59048 57.0673 2.14078 57.0673ZM2.16432 59.0786V62.5408C2.16432 62.9434 2.40418 63.1804 2.89655 63.1804H5.28639C5.75711 63.1804 5.95782 62.9101 5.95782 62.4815V59.1045C5.95782 58.6647 5.66958 58.4205 5.28149 58.4205H2.83971C2.4295 58.4205 2.16432 58.6923 2.16432 59.0786Z" fill="white"/>
<path fill-rule="evenodd" clip-rule="evenodd" d="M0.638062 53.8627H7.39326V52.5095H2.82102V46.5138H0.638062V53.8627Z" fill="white"/>
<path fill-rule="evenodd" clip-rule="evenodd" d="M2.45964 10.0447H7.90245V11.3979H3.50999C2.77686 11.3979 2.57724 11.6322 2.57724 12.2291V15.287C2.57724 16.0575 2.97606 16.0983 3.4889 16.0874C4.96792 16.0561 6.44693 16.0011 7.92599 15.9227V17.2402C6.28161 17.3016 4.62984 17.389 2.99291 17.4244C0.501004 17.4784 0.135498 16.5088 0.135498 15.4521V11.992C0.135498 11.0772 0.701523 10.0447 2.45964 10.0447Z" fill="white"/>
<path fill-rule="evenodd" clip-rule="evenodd" d="M2.42812 67.7249H7.11799V69.1016H3.33729C2.60587 69.1016 2.40478 69.3353 2.40454 69.9295C2.4043 70.5825 2.73057 70.7137 3.33729 70.7137H6.01361C6.74087 70.7137 7.82387 71.0726 7.82387 72.5441V72.9676C7.82387 74.0242 7.74073 75.1821 5.24882 75.1281C3.61188 75.0927 2.05423 75.0053 0.409867 74.9439V73.6264C1.88892 73.7048 3.274 73.7603 4.75281 73.7911C5.2652 73.8018 5.69597 73.7604 5.68801 72.9907L5.67941 72.161H2.42812C0.834809 72.161 0.336545 71.2743 0.257114 70.4272C0.226197 70.0962 0.224362 69.7025 0.266851 69.3709C0.372218 68.5514 0.889771 67.7249 2.42812 67.7249Z" fill="white"/>
</svg>
