<svg width="21" height="22" viewBox="0 0 21 22" fill="none" xmlns="http://www.w3.org/2000/svg">
<path d="M16.5 1V3M4.5 1V3" stroke="#EFEFEF" stroke-width="1.2" stroke-linecap="round" stroke-linejoin="round"/>
<path d="M1 11.2432C1 6.88594 1 4.70728 2.25212 3.35364C3.50424 2 5.51949 2 9.55 2H11.45C15.4805 2 17.4958 2 18.7479 3.35364C20 4.70728 20 6.88594 20 11.2432V11.7568C20 16.1141 20 18.2927 18.7479 19.6464C17.4958 21 15.4805 21 11.45 21H9.55C5.51949 21 3.50424 21 2.25212 19.6464C1 18.2927 1 16.1141 1 11.7568V11.2432Z" stroke="#EFEFEF" stroke-width="1.2" stroke-linecap="round" stroke-linejoin="round"/>
<path d="M1.5 7H19.5" stroke="#EFEFEF" stroke-width="1.2" stroke-linecap="round" stroke-linejoin="round"/>
</svg>
