<svg width="19" height="22" viewBox="0 0 19 22" fill="none" xmlns="http://www.w3.org/2000/svg">
<path d="M1 9C1 5.22876 1 3.34315 2.2448 2.17157C3.48959 1 5.49306 1 9.5 1H10.2727C13.5339 1 15.1645 1 16.2969 1.79784C16.6214 2.02643 16.9094 2.29752 17.1523 2.60289C18 3.66867 18 5.20336 18 8.27273V10.8182C18 13.7814 18 15.2629 17.5311 16.4462C16.7772 18.3486 15.1829 19.8491 13.1616 20.5586C11.9044 21 10.3302 21 7.18182 21C5.38275 21 4.48322 21 3.76478 20.7478C2.60979 20.3424 1.69875 19.4849 1.26796 18.3979C1 17.7217 1 16.8751 1 15.1818V9Z" stroke="white" stroke-width="1.2" stroke-linejoin="round"/>
<path d="M18 11C18 12.8409 16.5076 14.3333 14.6667 14.3333C14.0009 14.3333 13.216 14.2167 12.5686 14.3901C11.9935 14.5442 11.5442 14.9935 11.3901 15.5686C11.2167 16.216 11.3333 17.0009 11.3333 17.6667C11.3333 19.5076 9.84095 21 8 21" stroke="white" stroke-width="1.2" stroke-linecap="round" stroke-linejoin="round"/>
<path d="M5.5 6H12.5" stroke="white" stroke-width="1.2" stroke-linecap="round" stroke-linejoin="round"/>
<path d="M5.5 10H8.5" stroke="white" stroke-width="1.2" stroke-linecap="round" stroke-linejoin="round"/>
</svg>
